<?xml version="1.0" standalone="no"?>
<!DOCTYPE svg PUBLIC "-//W3C//DTD SVG 20010904//EN"
 "http://www.w3.org/TR/2001/REC-SVG-20010904/DTD/svg10.dtd">
<svg version="1.0" xmlns="http://www.w3.org/2000/svg"
 width="180.000000pt" height="180.000000pt" viewBox="0 0 180.000000 180.000000"
 preserveAspectRatio="xMidYMid meet">

<g transform="translate(0.000000,180.000000) scale(0.100000,-0.100000)"
fill="#000000" stroke="none">
<path fill="#dd5928" d="M512 1303 c-32 -28 -33 -82 -2 -113 19 -19 33 -20 413 -20 l394 0 21
23 c29 31 29 77 -1 105 -23 22 -27 22 -414 22 -358 0 -393 -1 -411 -17z"/>
<path fill="#dd5928" d="M517 989 c-45 -26 -38 -111 10 -130 13 -5 194 -9 402 -9 368 0 379 1
405 21 33 26 36 79 6 109 -19 19 -33 20 -412 20 -256 -1 -399 -4 -411 -11z"/>
<path fill="#dd5928" d="M506 661 c-32 -35 -20 -106 20 -121 15 -6 185 -10 403 -10 368 0 379
1 405 21 33 26 36 79 6 109 -19 19 -33 20 -418 20 -378 0 -400 -1 -416 -19z"/>
</g>
</svg>
